<svg xmlns="http://www.w3.org/2000/svg" preserveAspectRatio="xMidYMid meet" viewBox="-10 -10 710 320"><defs><linearGradient id="sheen" x1="0" y1="0" x2="1" y2="1"><stop offset="0" stop-color="#fff" stop-opacity=".10"/><stop offset=".5" stop-color="#fff" stop-opacity="0"/><stop offset="1" stop-color="#000" stop-opacity=".12"/></linearGradient></defs><rect width="690" height="300" rx="8" fill="#20392f"/><rect width="690" height="300" rx="8" fill="url(#sheen)"/><rect width="690" height="6" rx="3" fill="#0b7fe0"/><text x="14.0" y="38.0" font-family="DejaVu Sans, Arial, Helvetica, sans-serif" font-size="16" font-weight="bold" fill="#e7f0ec" fill-opacity="1" text-anchor="start">Mustang Bass</text><text x="14.0" y="99.0" font-family="DejaVu Sans, Arial, Helvetica, sans-serif" font-size="11" font-weight="normal" fill="#e7f0ec" fill-opacity="0.8" text-anchor="start">Fender</text><text x="14.0" y="284.0" font-family="DejaVu Sans, Arial, Helvetica, sans-serif" font-size="10" font-weight="normal" fill="#e7f0ec" fill-opacity="0.6" text-anchor="start">bass</text><line x1="142" y1="16" x2="142" y2="284" stroke="#e7f0ec" stroke-opacity=".18"/><g transform="translate(154,20)"><path d="M20,70.0 C60,40.0 150,60.0 170,95.0 C190,110.0 210,85.0 230,90.0 L230,170.0 C210,175.0 190,150.0 170,165.0 C150,200.0 60,220.0 20,190.0 C0,160.0 0,100.0 20,70.0 Z" fill="#0b7fe0" fill-opacity=".9" stroke="#222" stroke-width="3"/><rect x="228" y="117.0" width="220" height="26" rx="3" fill="#6b4a2b"/><line x1="243.7" y1="117.0" x2="243.7" y2="143.0" stroke="#c8c8c8" stroke-width="1.5"/><line x1="259.4" y1="117.0" x2="259.4" y2="143.0" stroke="#c8c8c8" stroke-width="1.5"/><line x1="275.1" y1="117.0" x2="275.1" y2="143.0" stroke="#c8c8c8" stroke-width="1.5"/><line x1="290.9" y1="117.0" x2="290.9" y2="143.0" stroke="#c8c8c8" stroke-width="1.5"/><line x1="306.6" y1="117.0" x2="306.6" y2="143.0" stroke="#c8c8c8" stroke-width="1.5"/><line x1="322.3" y1="117.0" x2="322.3" y2="143.0" stroke="#c8c8c8" stroke-width="1.5"/><line x1="338.0" y1="117.0" x2="338.0" y2="143.0" stroke="#c8c8c8" stroke-width="1.5"/><line x1="353.7" y1="117.0" x2="353.7" y2="143.0" stroke="#c8c8c8" stroke-width="1.5"/><line x1="369.4" y1="117.0" x2="369.4" y2="143.0" stroke="#c8c8c8" stroke-width="1.5"/><line x1="385.1" y1="117.0" x2="385.1" y2="143.0" stroke="#c8c8c8" stroke-width="1.5"/><line x1="400.9" y1="117.0" x2="400.9" y2="143.0" stroke="#c8c8c8" stroke-width="1.5"/><line x1="416.6" y1="117.0" x2="416.6" y2="143.0" stroke="#c8c8c8" stroke-width="1.5"/><line x1="432.3" y1="117.0" x2="432.3" y2="143.0" stroke="#c8c8c8" stroke-width="1.5"/><rect x="446" y="106.0" width="66" height="48" rx="10" fill="#2a2a2a"/><line x1="60" y1="120.0" x2="450" y2="120.0" stroke="#ddd" stroke-width="1.8"/><line x1="60" y1="126.7" x2="450" y2="126.7" stroke="#ddd" stroke-width="1.8"/><line x1="60" y1="133.3" x2="450" y2="133.3" stroke="#ddd" stroke-width="1.8"/><line x1="60" y1="140.0" x2="450" y2="140.0" stroke="#ddd" stroke-width="1.8"/><rect x="80" y="110.0" width="14" height="40" rx="3" fill="#111"/><rect x="120" y="110.0" width="14" height="40" rx="3" fill="#111"/></g></svg>
