<svg xmlns="http://www.w3.org/2000/svg" preserveAspectRatio="xMidYMid meet" viewBox="-10 -10 80 400"><defs><linearGradient id="sheen" x1="0" y1="0" x2="1" y2="1"><stop offset="0" stop-color="#fff" stop-opacity=".10"/><stop offset=".5" stop-color="#fff" stop-opacity="0"/><stop offset="1" stop-color="#000" stop-opacity=".12"/></linearGradient></defs><rect width="60" height="380" fill="#20392f"/><rect width="60" height="380" fill="url(#sheen)"/><circle cx="7.5" cy="7" r="3.4" fill="#9aa0a8" stroke="#55595f" stroke-width=".8"/><path d="M5.5,7 h4 M7.5,5 v4" stroke="#44484e" stroke-width="1"/><circle cx="52.5" cy="373" r="3.4" fill="#9aa0a8" stroke="#55595f" stroke-width=".8"/><path d="M50.5,373 h4 M52.5,371 v4" stroke="#44484e" stroke-width="1"/><rect x="12.0" y="20.5" width="36.0" height="1.6" fill="#d0579a"/><text x="30.0" y="22.0" font-family="DejaVu Sans, Arial, Helvetica, sans-serif" font-size="7.5" font-weight="bold" fill="#e7f0ec" fill-opacity="1" text-anchor="middle">RAZCALITO</text><circle cx="30.0" cy="51.5" r="15.0" fill="#16181b" stroke="#e7f0ec" stroke-opacity=".35"/><circle cx="30.0" cy="51.5" r="10.8" fill="#2a2d31"/><line x1="30.0" y1="51.5" x2="21.5" y2="60.0" stroke="#d0579a" stroke-width="3.0" stroke-linecap="round"/><circle cx="30.0" cy="217.0" r="8.0" fill="#cfd3d8" stroke="#d13b3f" stroke-width="2.8"/><circle cx="30.0" cy="217.0" r="3.4" fill="#101113"/><circle cx="30.0" cy="255.0" r="8.0" fill="#cfd3d8" stroke="#12a594" stroke-width="2.8"/><circle cx="30.0" cy="255.0" r="3.4" fill="#101113"/><circle cx="30.0" cy="293.0" r="8.0" fill="#cfd3d8" stroke="#c29100" stroke-width="2.8"/><circle cx="30.0" cy="293.0" r="3.4" fill="#101113"/><rect x="6.0" y="316.0" width="48.0" height="30" rx="4" fill="#000" fill-opacity=".28"/><circle cx="30.0" cy="331.0" r="8.0" fill="#cfd3d8" stroke="#e0591a" stroke-width="2.8"/><circle cx="30.0" cy="331.0" r="3.4" fill="#101113"/><text x="30.0" y="371.0" font-family="DejaVu Sans, Arial, Helvetica, sans-serif" font-size="7" font-weight="normal" fill="#e7f0ec" fill-opacity="0.8" text-anchor="middle">Moth Hunter M</text></svg>
