<svg xmlns="http://www.w3.org/2000/svg" width="110" height="400" viewBox="-10 -10 110 400"><defs><linearGradient id="sheen" x1="0" y1="0" x2="1" y2="1"><stop offset="0" stop-color="#fff" stop-opacity=".10"/><stop offset=".5" stop-color="#fff" stop-opacity="0"/><stop offset="1" stop-color="#000" stop-opacity=".12"/></linearGradient></defs><rect x="-10" y="-10" width="110" height="400" fill="#ffffff"/><rect width="90" height="380" fill="#4a2b2b"/><rect width="90" height="380" fill="url(#sheen)"/><circle cx="7.5" cy="7" r="3.4" fill="#9aa0a8" stroke="#55595f" stroke-width=".8"/><path d="M5.5,7 h4 M7.5,5 v4" stroke="#44484e" stroke-width="1"/><circle cx="82.5" cy="373" r="3.4" fill="#9aa0a8" stroke="#55595f" stroke-width=".8"/><path d="M80.5,373 h4 M82.5,371 v4" stroke="#44484e" stroke-width="1"/><rect x="18.0" y="47" width="54.0" height="1.6" fill="#e0591a"/><text x="45.0" y="22.0" font-family="DejaVu Sans, Arial, Helvetica, sans-serif" font-size="10" font-weight="bold" fill="#f4eaea" fill-opacity="1" text-anchor="middle">QTONE</text><text x="45.0" y="34.0" font-family="DejaVu Sans, Arial, Helvetica, sans-serif" font-size="10" font-weight="bold" fill="#f4eaea" fill-opacity="1" text-anchor="middle">EURORACK DUAL</text><text x="45.0" y="46.0" font-family="DejaVu Sans, Arial, Helvetica, sans-serif" font-size="10" font-weight="bold" fill="#f4eaea" fill-opacity="1" text-anchor="middle">CHANNEL</text><circle cx="24.0" cy="78.0" r="14.3" fill="#16181b" stroke="#f4eaea" stroke-opacity=".35"/><circle cx="24.0" cy="78.0" r="10.3" fill="#2a2d31"/><line x1="24.0" y1="78.0" x2="13.1" y2="81.5" stroke="#e0591a" stroke-width="2.9" stroke-linecap="round"/><circle cx="66.0" cy="78.0" r="14.3" fill="#16181b" stroke="#f4eaea" stroke-opacity=".35"/><circle cx="66.0" cy="78.0" r="10.3" fill="#2a2d31"/><line x1="66.0" y1="78.0" x2="76.8" y2="74.3" stroke="#e0591a" stroke-width="2.9" stroke-linecap="round"/><circle cx="45.0" cy="128.0" r="11.0" fill="#16181b" stroke="#f4eaea" stroke-opacity=".35"/><circle cx="45.0" cy="128.0" r="7.9" fill="#2a2d31"/><line x1="45.0" y1="128.0" x2="36.4" y2="126.2" stroke="#e0591a" stroke-width="2.2" stroke-linecap="round"/><circle cx="24.0" cy="217.0" r="8.0" fill="#cfd3d8" stroke="#8e4ec6" stroke-width="2.8"/><circle cx="24.0" cy="217.0" r="3.4" fill="#101113"/><circle cx="66.0" cy="217.0" r="8.0" fill="#cfd3d8" stroke="#d13b3f" stroke-width="2.8"/><circle cx="66.0" cy="217.0" r="3.4" fill="#101113"/><circle cx="24.0" cy="255.0" r="8.0" fill="#cfd3d8" stroke="#12a594" stroke-width="2.8"/><circle cx="24.0" cy="255.0" r="3.4" fill="#101113"/><circle cx="66.0" cy="255.0" r="8.0" fill="#cfd3d8" stroke="#c29100" stroke-width="2.8"/><circle cx="66.0" cy="255.0" r="3.4" fill="#101113"/><circle cx="24.0" cy="293.0" r="8.0" fill="#cfd3d8" stroke="#e0591a" stroke-width="2.8"/><circle cx="24.0" cy="293.0" r="3.4" fill="#101113"/><circle cx="66.0" cy="293.0" r="8.0" fill="#cfd3d8" stroke="#0b7fe0" stroke-width="2.8"/><circle cx="66.0" cy="293.0" r="3.4" fill="#101113"/><rect x="6.0" y="316.0" width="36.0" height="30" rx="4" fill="#000" fill-opacity=".28"/><circle cx="24.0" cy="331.0" r="8.0" fill="#cfd3d8" stroke="#5b8c32" stroke-width="2.8"/><circle cx="24.0" cy="331.0" r="3.4" fill="#101113"/><rect x="48.0" y="316.0" width="36.0" height="30" rx="4" fill="#000" fill-opacity=".28"/><circle cx="66.0" cy="331.0" r="8.0" fill="#cfd3d8" stroke="#d0579a" stroke-width="2.8"/><circle cx="66.0" cy="331.0" r="3.4" fill="#101113"/><text x="45.0" y="371.0" font-family="DejaVu Sans, Arial, Helvetica, sans-serif" font-size="7" font-weight="normal" fill="#f4eaea" fill-opacity="0.8" text-anchor="middle">DDNIPRO</text></svg>
