<svg xmlns="http://www.w3.org/2000/svg" width="710" height="320" viewBox="-10 -10 710 320"><defs><linearGradient id="sheen" x1="0" y1="0" x2="1" y2="1"><stop offset="0" stop-color="#fff" stop-opacity=".10"/><stop offset=".5" stop-color="#fff" stop-opacity="0"/><stop offset="1" stop-color="#000" stop-opacity=".12"/></linearGradient></defs><rect x="-10" y="-10" width="710" height="320" fill="#ffffff"/><rect width="690" height="300" rx="8" fill="#d5d8dc"/><rect width="690" height="300" rx="8" fill="url(#sheen)"/><rect width="690" height="6" rx="3" fill="#0b7fe0"/><text x="14.0" y="38.0" font-family="DejaVu Sans, Arial, Helvetica, sans-serif" font-size="16" font-weight="bold" fill="#1b1d21" fill-opacity="1" text-anchor="start">EarthQuaker Bit</text><text x="14.0" y="57.0" font-family="DejaVu Sans, Arial, Helvetica, sans-serif" font-size="16" font-weight="bold" fill="#1b1d21" fill-opacity="1" text-anchor="start">Commander</text><text x="14.0" y="99.0" font-family="DejaVu Sans, Arial, Helvetica, sans-serif" font-size="11" font-weight="normal" fill="#1b1d21" fill-opacity="0.8" text-anchor="start">EarthQuaker Devices</text><text x="14.0" y="284.0" font-family="DejaVu Sans, Arial, Helvetica, sans-serif" font-size="10" font-weight="normal" fill="#1b1d21" fill-opacity="0.6" text-anchor="start">pedal synth</text><line x1="142" y1="16" x2="142" y2="284" stroke="#1b1d21" stroke-opacity=".18"/><g transform="translate(154,20)"><rect x="162.5" y="0" width="195.0" height="260" rx="12" fill="#0b7fe0" fill-opacity=".85"/><circle cx="194.4" cy="45.0" r="17.4" fill="#16181b" stroke="#fff" stroke-opacity=".35"/><circle cx="194.4" cy="45.0" r="12.5" fill="#2a2d31"/><line x1="194.4" y1="45.0" x2="208.3" y2="45.2" stroke="#fff" stroke-width="3.5" stroke-linecap="round"/><circle cx="238.1" cy="45.0" r="17.4" fill="#16181b" stroke="#fff" stroke-opacity=".35"/><circle cx="238.1" cy="45.0" r="12.5" fill="#2a2d31"/><line x1="238.1" y1="45.0" x2="225.6" y2="51.1" stroke="#fff" stroke-width="3.5" stroke-linecap="round"/><circle cx="281.9" cy="45.0" r="17.4" fill="#16181b" stroke="#fff" stroke-opacity=".35"/><circle cx="281.9" cy="45.0" r="12.5" fill="#2a2d31"/><line x1="281.9" y1="45.0" x2="276.9" y2="32.0" stroke="#fff" stroke-width="3.5" stroke-linecap="round"/><circle cx="325.6" cy="45.0" r="17.4" fill="#16181b" stroke="#fff" stroke-opacity=".35"/><circle cx="325.6" cy="45.0" r="12.5" fill="#2a2d31"/><line x1="325.6" y1="45.0" x2="339.5" y2="45.5" stroke="#fff" stroke-width="3.5" stroke-linecap="round"/><circle cx="260.0" cy="135.2" r="5" fill="#ff4d3d"/><circle cx="260.0" cy="208.0" r="22" fill="#c9ccd1" stroke="#6b7078" stroke-width="3"/><rect x="152.5" y="65.0" width="10" height="20" rx="2" fill="#7d8289"/><rect x="357.5" y="65.0" width="10" height="20" rx="2" fill="#7d8289"/></g></svg>
