<svg xmlns="http://www.w3.org/2000/svg" width="710" height="320" viewBox="-10 -10 710 320"><defs><linearGradient id="sheen" x1="0" y1="0" x2="1" y2="1"><stop offset="0" stop-color="#fff" stop-opacity=".10"/><stop offset=".5" stop-color="#fff" stop-opacity="0"/><stop offset="1" stop-color="#000" stop-opacity=".12"/></linearGradient></defs><rect x="-10" y="-10" width="710" height="320" fill="#ffffff"/><rect width="690" height="300" rx="8" fill="#33465b"/><rect width="690" height="300" rx="8" fill="url(#sheen)"/><rect width="690" height="6" rx="3" fill="#d13b3f"/><text x="14.0" y="38.0" font-family="DejaVu Sans, Arial, Helvetica, sans-serif" font-size="16" font-weight="bold" fill="#eef2f7" fill-opacity="1" text-anchor="start">Logic Pro</text><text x="14.0" y="99.0" font-family="DejaVu Sans, Arial, Helvetica, sans-serif" font-size="11" font-weight="normal" fill="#eef2f7" fill-opacity="0.8" text-anchor="start">Apple</text><text x="14.0" y="284.0" font-family="DejaVu Sans, Arial, Helvetica, sans-serif" font-size="10" font-weight="normal" fill="#eef2f7" fill-opacity="0.6" text-anchor="start">software</text><line x1="142" y1="16" x2="142" y2="284" stroke="#eef2f7" stroke-opacity=".18"/><g transform="translate(154,20)"><rect x="10" y="10" width="500" height="240" rx="8" fill="#23262a"/><rect x="10" y="10" width="500" height="26" rx="8" fill="#34383e"/><circle cx="28" cy="23" r="5" fill="#e0594a"/><circle cx="46" cy="23" r="5" fill="#e3b341"/><circle cx="64" cy="23" r="5" fill="#3fb950"/><rect x="73" y="55.0" width="76" height="28.0" rx="4" fill="#e0591a" fill-opacity=".8"/><rect x="60" y="91.0" width="179" height="28.0" rx="4" fill="#0b7fe0" fill-opacity=".8"/><rect x="110" y="91.0" width="41" height="28.0" rx="4" fill="#12a594" fill-opacity=".8"/><rect x="36" y="91.0" width="139" height="28.0" rx="4" fill="#c29100" fill-opacity=".8"/><rect x="199" y="127.0" width="50" height="28.0" rx="4" fill="#12a594" fill-opacity=".8"/><rect x="241" y="127.0" width="56" height="28.0" rx="4" fill="#c29100" fill-opacity=".8"/><rect x="131" y="127.0" width="54" height="28.0" rx="4" fill="#8e4ec6" fill-opacity=".8"/><rect x="254" y="163.0" width="45" height="28.0" rx="4" fill="#c29100" fill-opacity=".8"/><rect x="233" y="199.0" width="164" height="28.0" rx="4" fill="#8e4ec6" fill-opacity=".8"/></g></svg>
